<svg width="102" height="18" viewBox="0 0 102 18" fill="none" xmlns="http://www.w3.org/2000/svg">
<path d="M8.74 9.8C9.55333 9.97333 10.2067 10.38 10.7 11.02C11.1933 11.6467 11.44 12.3667 11.44 13.18C11.44 14.3533 11.0267 15.2867 10.2 15.98C9.38667 16.66 8.24667 17 6.78 17H0.24V2.96H6.56C7.98667 2.96 9.1 3.28667 9.9 3.94C10.7133 4.59333 11.12 5.48 11.12 6.6C11.12 7.42667 10.9 8.11333 10.46 8.66C10.0333 9.20667 9.46 9.58667 8.74 9.8ZM3.66 8.64H5.9C6.46 8.64 6.88667 8.52 7.18 8.28C7.48667 8.02667 7.64 7.66 7.64 7.18C7.64 6.7 7.48667 6.33333 7.18 6.08C6.88667 5.82667 6.46 5.7 5.9 5.7H3.66V8.64ZM6.18 14.24C6.75333 14.24 7.19333 14.1133 7.5 13.86C7.82 13.5933 7.98 13.2133 7.98 12.72C7.98 12.2267 7.81333 11.84 7.48 11.56C7.16 11.28 6.71333 11.14 6.14 11.14H3.66V14.24H6.18ZM16.8436 2.2V17H13.4236V2.2H16.8436ZM24.402 17.16C23.3087 17.16 22.322 16.9267 21.442 16.46C20.5754 15.9933 19.8887 15.3267 19.382 14.46C18.8887 13.5933 18.642 12.58 18.642 11.42C18.642 10.2733 18.8954 9.26667 19.402 8.4C19.9087 7.52 20.602 6.84667 21.482 6.38C22.362 5.91333 23.3487 5.68 24.442 5.68C25.5354 5.68 26.522 5.91333 27.402 6.38C28.282 6.84667 28.9754 7.52 29.482 8.4C29.9887 9.26667 30.242 10.2733 30.242 11.42C30.242 12.5667 29.982 13.58 29.462 14.46C28.9554 15.3267 28.2554 15.9933 27.362 16.46C26.482 16.9267 25.4954 17.16 24.402 17.16ZM24.402 14.2C25.0554 14.2 25.6087 13.96 26.062 13.48C26.5287 13 26.762 12.3133 26.762 11.42C26.762 10.5267 26.5354 9.84 26.082 9.36C25.642 8.88 25.0954 8.64 24.442 8.64C23.7754 8.64 23.222 8.88 22.782 9.36C22.342 9.82667 22.122 10.5133 22.122 11.42C22.122 12.3133 22.3354 13 22.762 13.48C23.202 13.96 23.7487 14.2 24.402 14.2ZM31.3764 11.42C31.3764 10.26 31.6097 9.24667 32.0764 8.38C32.5564 7.51333 33.2164 6.84667 34.0564 6.38C34.9097 5.91333 35.8831 5.68 36.9764 5.68C38.3764 5.68 39.5431 6.04667 40.4764 6.78C41.4231 7.51333 42.0431 8.54667 42.3364 9.88H38.6964C38.3897 9.02667 37.7964 8.6 36.9164 8.6C36.2897 8.6 35.7897 8.84667 35.4164 9.34C35.0431 9.82 34.8564 10.5133 34.8564 11.42C34.8564 12.3267 35.0431 13.0267 35.4164 13.52C35.7897 14 36.2897 14.24 36.9164 14.24C37.7964 14.24 38.3897 13.8133 38.6964 12.96H42.3364C42.0431 14.2667 41.4231 15.2933 40.4764 16.04C39.5297 16.7867 38.3631 17.16 36.9764 17.16C35.8831 17.16 34.9097 16.9267 34.0564 16.46C33.2164 15.9933 32.5564 15.3267 32.0764 14.46C31.6097 13.5933 31.3764 12.58 31.3764 11.42ZM50.9858 17L47.5858 12.32V17H44.1658V2.2H47.5858V10.38L50.9658 5.84H55.1858L50.5458 11.44L55.2258 17H50.9858ZM68.6891 2.96V17H65.2691V11.22H59.9491V17H56.5291V2.96H59.9491V8.46H65.2691V2.96H68.6891ZM72.878 4.68C72.278 4.68 71.7846 4.50667 71.398 4.16C71.0246 3.8 70.838 3.36 70.838 2.84C70.838 2.30667 71.0246 1.86667 71.398 1.52C71.7846 1.16 72.278 0.979999 72.878 0.979999C73.4646 0.979999 73.9446 1.16 74.318 1.52C74.7046 1.86667 74.898 2.30667 74.898 2.84C74.898 3.36 74.7046 3.8 74.318 4.16C73.9446 4.50667 73.4646 4.68 72.878 4.68ZM74.578 5.84V17H71.158V5.84H74.578ZM80.4764 7.7C80.8764 7.08667 81.3764 6.60667 81.9764 6.26C82.5764 5.9 83.2431 5.72 83.9764 5.72V9.34H83.0364C82.1831 9.34 81.5431 9.52667 81.1164 9.9C80.6897 10.26 80.4764 10.9 80.4764 11.82V17H77.0564V5.84H80.4764V7.7ZM96.1311 11.24C96.1311 11.56 96.1111 11.8933 96.0711 12.24H88.3311C88.3844 12.9333 88.6044 13.4667 88.9911 13.84C89.3911 14.2 89.8778 14.38 90.4511 14.38C91.3044 14.38 91.8978 14.02 92.2311 13.3H95.8711C95.6844 14.0333 95.3444 14.6933 94.8511 15.28C94.3711 15.8667 93.7644 16.3267 93.0311 16.66C92.2978 16.9933 91.4778 17.16 90.5711 17.16C89.4778 17.16 88.5044 16.9267 87.6511 16.46C86.7978 15.9933 86.1311 15.3267 85.6511 14.46C85.1711 13.5933 84.9311 12.58 84.9311 11.42C84.9311 10.26 85.1644 9.24667 85.6311 8.38C86.1111 7.51333 86.7778 6.84667 87.6311 6.38C88.4844 5.91333 89.4644 5.68 90.5711 5.68C91.6511 5.68 92.6111 5.90667 93.4511 6.36C94.2911 6.81333 94.9444 7.46 95.4111 8.3C95.8911 9.14 96.1311 10.12 96.1311 11.24ZM92.6311 10.34C92.6311 9.75333 92.4311 9.28667 92.0311 8.94C91.6311 8.59333 91.1311 8.42 90.5311 8.42C89.9578 8.42 89.4711 8.58667 89.0711 8.92C88.6844 9.25333 88.4444 9.72667 88.3511 10.34H92.6311ZM99.5353 17.16C98.9353 17.16 98.442 16.9867 98.0553 16.64C97.682 16.28 97.4953 15.84 97.4953 15.32C97.4953 14.7867 97.682 14.34 98.0553 13.98C98.442 13.62 98.9353 13.44 99.5353 13.44C100.122 13.44 100.602 13.62 100.975 13.98C101.362 14.34 101.555 14.7867 101.555 15.32C101.555 15.84 101.362 16.28 100.975 16.64C100.602 16.9867 100.122 17.16 99.5353 17.16Z" fill="white"/>
</svg>
