<svg width="167" height="28" viewBox="0 0 167 28" fill="none" xmlns="http://www.w3.org/2000/svg">
<path d="M15.192 15.416C16.5147 15.7147 17.56 16.376 18.328 17.4C19.1173 18.4027 19.512 19.5547 19.512 20.856C19.512 22.776 18.8507 24.28 17.528 25.368C16.2053 26.456 14.3493 27 11.96 27H0.792V4.44H11.608C13.912 4.44 15.7147 4.952 17.016 5.976C18.3387 7 19 8.44 19 10.296C19 11.6187 18.648 12.728 17.944 13.624C17.2613 14.4987 16.344 15.096 15.192 15.416ZM7.064 13.4H10.232C11.8107 13.4 12.6 12.7493 12.6 11.448C12.6 10.104 11.8107 9.432 10.232 9.432H7.064V13.4ZM10.712 21.944C12.2907 21.944 13.08 21.2827 13.08 19.96C13.08 19.2773 12.8667 18.7547 12.44 18.392C12.0347 18.0293 11.448 17.848 10.68 17.848H7.064V21.944H10.712ZM28.5328 3.32V27H22.2608V3.32H28.5328ZM40.4565 27.224C38.6645 27.224 37.0538 26.8507 35.6245 26.104C34.2165 25.3573 33.1072 24.2907 32.2965 22.904C31.4858 21.5173 31.0805 19.8853 31.0805 18.008C31.0805 16.152 31.4858 14.5307 32.2965 13.144C33.1285 11.7573 34.2485 10.6907 35.6565 9.944C37.0858 9.19733 38.6965 8.824 40.4885 8.824C42.2805 8.824 43.8805 9.19733 45.2885 9.944C46.7178 10.6907 47.8378 11.7573 48.6485 13.144C49.4805 14.5307 49.8965 16.152 49.8965 18.008C49.8965 19.864 49.4805 21.496 48.6485 22.904C47.8378 24.2907 46.7178 25.3573 45.2885 26.104C43.8592 26.8507 42.2485 27.224 40.4565 27.224ZM40.4565 21.784C41.3312 21.784 42.0565 21.464 42.6325 20.824C43.2298 20.1627 43.5285 19.224 43.5285 18.008C43.5285 16.792 43.2298 15.864 42.6325 15.224C42.0565 14.584 41.3418 14.264 40.4885 14.264C39.6352 14.264 38.9205 14.584 38.3445 15.224C37.7685 15.864 37.4805 16.792 37.4805 18.008C37.4805 19.2453 37.7578 20.184 38.3125 20.824C38.8672 21.464 39.5818 21.784 40.4565 21.784ZM51.4243 18.008C51.4243 16.152 51.8083 14.5307 52.5763 13.144C53.3443 11.7573 54.4109 10.6907 55.7763 9.944C57.1629 9.19733 58.7416 8.824 60.5123 8.824C62.7949 8.824 64.7149 9.45333 66.2723 10.712C67.8296 11.9493 68.8323 13.688 69.2803 15.928H62.6243C62.2403 14.7547 61.4936 14.168 60.3843 14.168C59.5949 14.168 58.9656 14.4987 58.4963 15.16C58.0483 15.8 57.8243 16.7493 57.8243 18.008C57.8243 19.2667 58.0483 20.2267 58.4963 20.888C58.9656 21.5493 59.5949 21.88 60.3843 21.88C61.5149 21.88 62.2616 21.2933 62.6243 20.12H69.2803C68.8323 22.3387 67.8296 24.0773 66.2723 25.336C64.7149 26.5947 62.7949 27.224 60.5123 27.224C58.7416 27.224 57.1629 26.8507 55.7763 26.104C54.4109 25.3573 53.3443 24.2907 52.5763 22.904C51.8083 21.5173 51.4243 19.8853 51.4243 18.008ZM83.1178 27L78.1578 19.64V27H71.8858V3.32H78.1578V16.088L83.1178 9.048H90.6378L83.5658 18.072L90.7658 27H83.1178Z" fill="#202020"/>
<path d="M112.797 4.44V27H106.525V17.944H98.8765V27H92.6045V4.44H98.8765V12.92H106.525V4.44H112.797ZM119.554 7.384C118.444 7.384 117.548 7.08533 116.866 6.488C116.204 5.86933 115.874 5.10133 115.874 4.184C115.874 3.24533 116.204 2.46667 116.866 1.848C117.548 1.22933 118.444 0.919998 119.554 0.919998C120.642 0.919998 121.516 1.22933 122.178 1.848C122.86 2.46667 123.202 3.24533 123.202 4.184C123.202 5.10133 122.86 5.86933 122.178 6.488C121.516 7.08533 120.642 7.384 119.554 7.384ZM122.658 9.048V27H116.386V9.048H122.658ZM132.502 12.216C133.206 11.192 134.059 10.3813 135.062 9.784C136.064 9.18667 137.142 8.888 138.294 8.888V15.576H136.534C135.168 15.576 134.155 15.8427 133.494 16.376C132.832 16.9093 132.502 17.8373 132.502 19.16V27H126.23V9.048H132.502V12.216ZM157.694 17.816C157.694 18.3067 157.662 18.7973 157.598 19.288H145.726C145.79 20.2693 146.057 21.0053 146.526 21.496C147.017 21.9653 147.635 22.2 148.382 22.2C149.427 22.2 150.174 21.7307 150.622 20.792H157.31C157.033 22.0293 156.489 23.1387 155.678 24.12C154.889 25.08 153.886 25.8373 152.67 26.392C151.454 26.9467 150.11 27.224 148.638 27.224C146.867 27.224 145.289 26.8507 143.902 26.104C142.537 25.3573 141.459 24.2907 140.67 22.904C139.902 21.5173 139.518 19.8853 139.518 18.008C139.518 16.1307 139.902 14.5093 140.67 13.144C141.438 11.7573 142.505 10.6907 143.87 9.944C145.257 9.19733 146.846 8.824 148.638 8.824C150.409 8.824 151.977 9.18667 153.342 9.912C154.707 10.6373 155.774 11.6827 156.542 13.048C157.31 14.392 157.694 15.9813 157.694 17.816ZM151.294 16.248C151.294 15.48 151.038 14.8827 150.526 14.456C150.014 14.008 149.374 13.784 148.606 13.784C147.838 13.784 147.209 13.9973 146.718 14.424C146.227 14.8293 145.907 15.4373 145.758 16.248H151.294ZM163.301 27.256C162.191 27.256 161.295 26.9573 160.613 26.36C159.951 25.7413 159.621 24.9627 159.621 24.024C159.621 23.0853 159.951 22.3067 160.613 21.688C161.295 21.0693 162.191 20.76 163.301 20.76C164.389 20.76 165.263 21.0693 165.925 21.688C166.607 22.3067 166.949 23.0853 166.949 24.024C166.949 24.9413 166.607 25.7093 165.925 26.328C165.263 26.9467 164.389 27.256 163.301 27.256Z" fill="#2F89FC"/>
</svg>
